<?xml version="1.0" standalone="no"?>
<!DOCTYPE svg PUBLIC "-//W3C//DTD SVG 1.1//EN" "http://www.w3.org/Graphics/SVG/1.1/DTD/svg11.dtd" >
<svg>
<metadata>
Created by FontForge 20120731 at Sun Apr 28 11:55:06 2013
 By Jenkins
(c) 1998 utopiafonts. dale_thorpe@bssc.edu.au
</metadata>
<defs>
<font id="IhateComicSans" horiz-adv-x="477" >
  <font-face 
    font-family="I hate Comic Sans"
    font-weight="400"
    font-stretch="normal"
    units-per-em="1000"
    panose-1="0 0 4 0 0 0 0 0 0 0"
    ascent="800"
    descent="-200"
    x-height="410"
    cap-height="808"
    bbox="-87 -322 1436 831"
    underline-thickness="20"
    underline-position="-123"
    unicode-range="U+0020-007E"
  />
<missing-glyph horiz-adv-x="500" 
d="M63 0v831h375v-831h-375zM125 63h250v706h-250v-706z" />
    <glyph glyph-name=".notdef" horiz-adv-x="500" 
d="M63 0v831h375v-831h-375zM125 63h250v706h-250v-706z" />
    <glyph glyph-name=".null" horiz-adv-x="0" 
 />
    <glyph glyph-name="nonmarkingreturn" 
 />
    <glyph glyph-name="space" unicode=" " 
 />
    <glyph glyph-name="exclam" unicode="!" horiz-adv-x="126" 
d="M23 254v516q0 17 11.5 28.5t28.5 11.5t28.5 -11.5t11.5 -28.5v-516q0 -17 -11.5 -28.5t-28.5 -11.5t-28.5 11.5t-11.5 28.5zM31 55v33q0 40 40 40t40 -40v-33q0 -40 -40 -40t-40 40z" />
    <glyph glyph-name="quotedbl" unicode="&#x22;" horiz-adv-x="238" 
d="M94 772l-3 -150q-1 -39 -40 -39q-41 0 -40 41l3 150q1 39 40 39q41 0 40 -41zM213 776v-147q0 -40 -40 -40t-40 40v147q0 40 40 40t40 -40z" />
    <glyph glyph-name="numbersign" unicode="#" horiz-adv-x="652" 
d="M253 333l123 3l3 164l-129 -2zM30 329l143 3l-3 165l-216 -3q-41 -1 -41 40q0 39 39 40l217 3l-2 117q-1 41 40 41q39 0 40 -39l2 -118l131 2l3 137q1 39 40 39q41 0 40 -41l-3 -134l138 2q41 1 41 -40q0 -39 -39 -40l-141 -2l-3 -164l185 4q41 1 41 -40q0 -39 -39 -40
l-189 -4l-3 -171q-1 -39 -40 -39q-41 0 -40 41l3 168l-119 -3l3 -194q1 -41 -40 -41q-39 0 -40 39l-3 195l-143 -3q-41 -1 -41 40q0 39 39 40z" />
    <glyph glyph-name="dollar" unicode="$" horiz-adv-x="472" 
d="M207 436l1 164q-79 -10 -79 -71q0 -67 78 -93zM287 338l-1 -164q119 23 119 90q0 34 -35 52q-23 12 -83 22zM288 741v-66q183 -31 183 -85q0 -18 -12.5 -29.5t-30.5 -11.5q-6 0 -52 17q-54 20 -88 28l-1 -176q100 -18 135 -38q63 -36 63 -114q0 -73 -65 -122
q-55 -41 -134 -53v-41q0 -40 -40 -40t-40 40v38q-71 6 -126 23q-75 23 -75 56q0 17 11.5 29t28.5 12q26 0 77 -16q60 -19 84 -22l1 183q-157 37 -157 177q0 67 46 108q43 37 112 42v61q0 40 40 40t40 -40z" />
    <glyph glyph-name="percent" unicode="%" horiz-adv-x="705" 
d="M67 6q-17 0 -29.5 12t-12.5 29l11 27l315 364q270 310 302 310q17 0 29.5 -12t12.5 -29l-11 -27l-315 -364q-270 -310 -302 -310zM51 626q0 57 41 93t99 36q59 0 95 -26q41 -29 41 -86q0 -59 -38 -108q-40 -53 -98 -53q-59 0 -99.5 42t-40.5 102zM197 562q18 0 34 27
t16 46q0 40 -55 40q-25 0 -43 -14.5t-18 -38.5q0 -27 19.5 -43.5t46.5 -16.5zM451 136q0 57 41 93t99 36q59 0 95 -26q41 -29 41 -86q0 -59 -38 -108q-40 -53 -98 -53q-59 0 -99.5 42t-40.5 102zM597 72q18 0 34 27t16 46q0 40 -55 40q-25 0 -43 -14.5t-18 -38.5
q0 -27 19.5 -43.5t46.5 -16.5z" />
    <glyph glyph-name="ampersand" unicode="&#x26;" horiz-adv-x="961" 
d="M935 277q-1 -38 -6 -226q-1 -40 -86 -40q-75 0 -135 35q-72 42 -72 115q0 78 64 120q55 36 137 36q19 0 36 -2q0 14 -4 70q-2 43 -2 70q0 119 37 119q31 0 31 -31v-266zM389 281q41 51 88 51q74 0 109 -118q23 -78 23 -171q0 -31 -31 -31q-29 0 -31 30q-8 101 -13 130
q-18 96 -61 96q-48 0 -71 -94l-20 -133q-5 -30 -31 -30q-32 0 -31 33l8 241q1 30 31 30q29 0 30 -34zM237 28l-4 12q-69 -28 -121 -28q-55 0 -85 31q-28 28 -28 73q0 78 65 146q73 76 181 83q29 2 33 -25q18 -109 5 -234q14 -32 14 -49q0 -30 -32 -30q-21 0 -28 21zM831 256
q-49 0 -87 -21q-46 -26 -46 -72q0 -45 50 -68q38 -18 89 -18q15 0 32 2l4 174q-22 3 -42 3zM221 280q-56 -12 -106 -57q-55 -49 -55 -103q0 -47 56 -47q41 0 107 29q3 38 3 76q0 50 -5 102z" />
    <glyph glyph-name="quotesingle" unicode="'" horiz-adv-x="119" 
d="M94 772l-3 -150q-1 -39 -40 -39q-41 0 -40 41l3 150q1 39 40 39q41 0 40 -41z" />
    <glyph glyph-name="parenleft" unicode="(" horiz-adv-x="269" 
d="M249 753q-71 -68 -110 -168q-37 -96 -37 -198q0 -208 146 -339q14 -13 14 -29q0 -17 -12 -29.5t-29 -12.5q-15 0 -27 11q-172 156 -172 397q0 117 44 230q46 117 127 196q12 12 28 12t28.5 -12.5t12.5 -28.5t-13 -29z" />
    <glyph glyph-name="parenright" unicode=")" horiz-adv-x="243" 
d="M19 753q71 -68 110 -168q37 -96 37 -198q0 -208 -146 -339q-14 -13 -14 -29q0 -17 12 -29.5t29 -12.5q15 0 27 11q172 156 172 397q0 117 -44 230q-46 117 -127 196q-12 12 -28 12t-28.5 -12.5t-12.5 -28.5t13 -29z" />
    <glyph glyph-name="asterisk" unicode="*" horiz-adv-x="631" 
d="M212 656l112 -79l1 104q0 40 40 40t40 -40l-1 -109l104 82q13 10 25 10q16 0 28.5 -13t12.5 -29q0 -17 -16 -30l-120 -95l192 -135q18 -13 18 -32q0 -16 -12 -29t-28 -13q-13 0 -24 8l-182 128l-2 -210q0 -40 -40 -40t-40 40l2 192l-206 -162q-13 -10 -25 -10
q-16 0 -28.5 13t-12.5 29q0 17 16 30l238 187l-138 97q-18 13 -18 32q0 16 12 29t28 13q13 0 24 -8z" />
    <glyph glyph-name="plus" unicode="+" horiz-adv-x="482" 
d="M291 538l-3 -73l153 5q41 1 41 -40q0 -39 -39 -40l-159 -6l-7 -178q-1 -38 -40 -38q-42 0 -40 42l7 172l-162 -6q-41 -2 -41 40q0 39 39 40l168 6l3 80q1 38 40 38q42 0 40 -42z" />
    <glyph glyph-name="comma" unicode="," horiz-adv-x="165" 
d="M85 97q67 -53 67 -115q0 -32 -18 -78q-10 -26 -36 -26q-16 0 -28.5 11t-12.5 27q0 8 3 16q12 32 12 49q0 23 -37 52q-16 12 -16 31q0 17 12 29.5t29 12.5q14 0 25 -9z" />
    <glyph glyph-name="hyphen" unicode="-" horiz-adv-x="436" 
d="M94 421h283q40 0 40 -40t-40 -40h-283q-40 0 -40 40t40 40z" />
    <glyph glyph-name="hyphen" unicode="&#x2010;" horiz-adv-x="436" 
d="M94 421h283q40 0 40 -40t-40 -40h-283q-40 0 -40 40t40 40z" />
    <glyph glyph-name="period" unicode="." horiz-adv-x="107" 
d="M83 65l2 -18q2 -21 -11.5 -37.5t-34.5 -16.5q-27 0 -30 30l-2 18q-2 21 11.5 37.5t34.5 16.5q27 0 30 -30z" />
    <glyph glyph-name="slash" unicode="/" horiz-adv-x="403" 
d="M402 721l-297 -712q-10 -25 -36 -25q-17 0 -29 11t-12 28q0 9 3 16l297 712q10 25 36 25q17 0 29 -11t12 -28q0 -9 -3 -16z" />
    <glyph glyph-name="zero" unicode="0" horiz-adv-x="460" 
d="M459 356q3 -135 -53 -233q-67 -116 -193 -116q-120 0 -180 132q-46 101 -46 237q0 139 47 258q62 160 179 160q114 0 185 -161q57 -129 61 -277zM379 355q-3 125 -50 237q-51 122 -116 122q-77 0 -117 -141q-28 -100 -28 -202q0 -100 26 -175q38 -109 119 -109
q89 0 134 95q34 74 32 173z" />
    <glyph glyph-name="one" unicode="1" horiz-adv-x="224" 
d="M27 611l81 148q15 28 38 28q35 0 37 -45l33 -678q1 -18 -11 -30t-30 -12q-37 0 -39 38l-25 538q-23 -43 -58 -43q-33 0 -33 32q0 11 7 24z" />
    <glyph glyph-name="two" unicode="2" horiz-adv-x="523" 
d="M495 -16h-438q-18 0 -32 10.5t-14 27.5q0 22 33 40q175 94 278 210q131 147 131 314q0 105 -83 105q-47 0 -111 -35q-32 -18 -99 -65q-49 -35 -60 -35q-16 0 -28.5 13t-12.5 29q0 44 133 111q126 63 184 63q77 0 117 -59q35 -51 35 -132q0 -146 -91 -293
q-85 -135 -214 -224q28 0 84 4t84 4q144 0 144 -48q0 -17 -11.5 -28.5t-28.5 -11.5z" />
    <glyph glyph-name="three" unicode="3" horiz-adv-x="529" 
d="M49 760q116 25 209 25q107 0 177 -33q92 -44 99 -138q4 -63 -35 -122q-35 -52 -95 -86q123 -64 123 -190q0 -104 -77.5 -175.5t-182.5 -71.5q-117 0 -241 91q-17 13 -17 31q0 17 12 29.5t29 12.5q12 0 24 -9q99 -73 192 -73q72 0 126.5 44.5t54.5 115.5q0 74 -67 116
q-54 34 -135 40q-40 3 -40 40q0 41 44 40q69 -2 133 40q72 47 72 113q0 60 -71 87q-49 19 -121 19q-36 0 -105 -12.5t-102 -12.5q-17 0 -27.5 12t-10.5 29q0 31 32 38z" />
    <glyph glyph-name="four" unicode="4" horiz-adv-x="579" 
d="M336 440l8 209l-213 -202zM320 20l13 340q-26 0 -77 -2t-77 -2q-190 0 -190 48q0 29 187 207.5t218 178.5q34 0 34 -42q0 -3 -12 -311q13 0 38.5 2t38.5 2q97 0 97 -48q0 -45 -78 -45q-17 0 -58 5q-32 4 -41 4l-13 -341q-1 -38 -40 -38q-18 0 -29.5 12t-10.5 30z" />
    <glyph glyph-name="five" unicode="5" horiz-adv-x="642" 
d="M97 703v-221q79 9 149 9q147 0 259 -42q156 -59 156 -182q0 -122 -134 -195q-112 -61 -242 -61q-69 0 -156 18q-117 24 -117 64q0 16 11 28.5t27 12.5q38 0 117.5 -21.5t119.5 -21.5q95 0 181 38q110 49 110 133q0 86 -129 124q-85 25 -195 25q-32 0 -96 -7t-96 -7
q-45 0 -45 40v306q0 16 12 28t28 12h459q17 0 28.5 -11.5t11.5 -28.5q0 -50 -200 -50q-62 0 -155 5z" />
    <glyph glyph-name="six" unicode="6" horiz-adv-x="506" 
d="M185 408q-56 -74 -71 -99q-34 -56 -34 -100q0 -62 67 -116q37 -3 70 -3q221 0 221 113q0 78 -89 145q-84 63 -164 60zM234 485q109 -18 191 -95q90 -83 90 -189q0 -103 -94 -154q-74 -40 -186 -40q-49 0 -106 7l-21 8q-98 66 -98 175q0 124 122 309q62 90 185 270
q13 19 32 19q17 0 30 -11.5t13 -27.5q0 -10 -7 -22z" />
    <glyph glyph-name="seven" unicode="7" horiz-adv-x="532" 
d="M453 689l-398 -5q-41 -1 -41 40q0 37 39 40q76 6 276 6q204 0 222 -14q6 -5 6 -14q0 -8 -8 -27l-289 -679q-11 -25 -36 -25q-17 0 -29.5 11t-12.5 27q0 8 4 17z" />
    <glyph glyph-name="eight" unicode="8" horiz-adv-x="493" 
d="M92 385q-66 50 -66 141q0 92 59 167q64 80 153 80q126 0 201 -74q59 -59 59 -133q0 -115 -115 -184q95 -66 95 -172q0 -96 -73 -160q-69 -60 -167 -60q-95 0 -163 70t-68 166q0 103 85 159zM238 424q69 0 121 38q57 41 57 108q0 63 -60 96q-49 27 -118 27q-53 0 -95 -57
q-38 -53 -38 -108q0 -104 133 -104zM238 344q-64 0 -104 -28q-46 -32 -46 -93q0 -62 44 -107.5t106 -45.5q66 0 111.5 37.5t45.5 102.5q0 64 -48 101q-43 33 -109 33z" />
    <glyph glyph-name="nine" unicode="9" horiz-adv-x="575" 
d="M464 401q42 95 42 160q0 139 -194 139q-29 0 -64 -3q-38 -12 -61 -60q-20 -41 -20 -86q0 -81 56 -123q50 -39 134 -39q48 0 107 12zM56 101l172 -9q107 0 155 60q36 45 60 164q-44 -7 -84 -7q-120 0 -194 65q-79 68 -79 185q0 74 36 135q41 70 109 81l6 1q54 9 99 9
q112 0 177 -53q71 -58 71 -167q0 -95 -53 -210q-31 -206 -106 -276q-68 -63 -234 -63q-49 0 -139 5q-38 2 -38 40q0 18 12 29.5t30 10.5z" />
    <glyph glyph-name="colon" unicode=":" horiz-adv-x="94" 
d="M8 28q-2 19 -3 32q-3 42 38 42q38 0 42 -38q2 -19 3 -32q3 -42 -38 -42q-38 0 -42 38zM14 393v26q0 40 40 40t40 -40v-26q0 -40 -40 -40t-40 40z" />
    <glyph glyph-name="semicolon" unicode=";" horiz-adv-x="101" 
d="M28 -22q-11 36 -23 82q-3 42 38 42q38 0 42 -38q11 -36 23 -82q3 -42 -38 -42q-38 0 -42 38zM14 393v26q0 40 40 40t40 -40v-26q0 -40 -40 -40t-40 40z" />
    <glyph glyph-name="less" unicode="&#x3c;" horiz-adv-x="402" 
d="M414 618l-304 -246l293 -279q13 -12 13 -29q0 -16 -12.5 -28.5t-28.5 -12.5q-15 0 -28 12q-42 38 -251 226q-85 76 -85 113t88 104l265 202q13 10 25 10q16 0 28.5 -13t12.5 -29q0 -17 -16 -30z" />
    <glyph glyph-name="equal" unicode="=" horiz-adv-x="432" 
d="M94 341h283q40 0 40 -40t-40 -40h-283q-40 0 -40 40t40 40zM94 481h283q40 0 40 -40t-40 -40h-283q-40 0 -40 40t40 40z" />
    <glyph glyph-name="greater" unicode="&#x3e;" horiz-adv-x="431" 
d="M50 608l304 -246l-293 -279q-13 -12 -13 -29q0 -16 12.5 -28.5t28.5 -12.5q15 0 27 12q42 38 252 226q84 75 84 113t-87 104l-265 202q-13 10 -25 10q-17 0 -29 -12.5t-12 -29.5t16 -30z" />
    <glyph glyph-name="question" unicode="?" horiz-adv-x="450" 
d="M48 596q116 135 228 135q83 0 138 -70q52 -65 52 -150q0 -80 -47.5 -134t-127.5 -70l-4 -85q-2 -38 -40 -38q-42 0 -40 42l-1 17q-1 17 -1 33q0 102 44 106q60 5 99 42.5t39 96.5q0 51 -30 89t-80 38q-80 0 -169 -104q-13 -15 -29 -15q-17 0 -29.5 12t-12.5 29
q0 13 11 26zM281 109v-26q0 -40 -40 -40t-40 40v26q0 40 40 40t40 -40z" />
    <glyph glyph-name="at" unicode="@" horiz-adv-x="713" 
d="M528 213q9 -5 24 4q50 30 79 104q17 44 17 84q0 94 -79 149q-71 50 -168 50q-118 0 -200.5 -69.5t-111.5 -186.5q-9 -37 -9 -67q0 -98 71 -147q60 -42 164 -42q54 0 113 10q20 3 33.5 -8t13.5 -32q0 -32 -33 -38q-71 -12 -126 -12q-138 0 -222 63q-93 71 -93 204
q0 152 109 277q116 134 277 134q55 0 112 -18q102 -33 162 -96q67 -71 67 -171q0 -120 -90 -217q-57 -61 -108 -61q-35 0 -63 30q-78 -29 -138 -29q-70 0 -110.5 39t-40.5 108q0 107 80 186.5t187 82.5q7 0 20 -7t16 -14q69 -123 69 -201q0 -51 -22 -109zM452 237
q18 46 18 85q0 54 -46 140q-62 -11 -114 -66q-55 -58 -55 -119q0 -69 78 -69q48 0 119 29z" />
    <glyph glyph-name="A" unicode="A" horiz-adv-x="469" 
d="M492 7q0 -15 -13 -26t-28 -11q-44 0 -78 138q-5 22 -37 173l-179 4q-12 -59 -37 -176q-33 -139 -78 -139q-16 0 -28.5 10.5t-12.5 26.5q0 8 205 766q10 37 38 37q29 0 39 -37zM178 364l135 -2l-68 249z" />
    <glyph glyph-name="B" unicode="B" horiz-adv-x="378" 
d="M81 431q75 3 127 31q66 36 66 103q0 69 -64 117q-56 41 -130 49zM302 212q0 69 -80 107q-61 29 -141 31v-286q76 6 139 39q82 43 82 109zM41 -17q-16 0 -28 12t-12 28l-1 750q0 16 12 28t28 12q120 0 215 -66q107 -74 107 -188q0 -104 -101 -162q53 -27 86 -71
q36 -48 36 -104q0 -120 -117 -185q-97 -54 -225 -54z" />
    <glyph glyph-name="C" unicode="C" horiz-adv-x="388" 
d="M407 118q-93 -119 -184 -119q-69 0 -122 72q-40 55 -62 135q-26 94 -26 206q0 135 40 241q55 147 167 147q80 0 181 -86q15 -13 15 -29q0 -17 -11.5 -29.5t-28.5 -12.5q-13 0 -26 11q-70 60 -125 60q-76 0 -110 -110q-22 -73 -22 -171q0 -85 18 -172q23 -110 65 -156
q23 -25 49 -25q50 0 119 88q13 16 31 16q16 0 28.5 -12.5t12.5 -28.5q0 -13 -9 -25z" />
    <glyph glyph-name="D" unicode="D" horiz-adv-x="414" 
d="M3 791q1 40 57 40q98 0 200 -101q152 -150 152 -387q0 -161 -87 -260q-101 -115 -296 -110q-16 0 -27.5 12.5t-11.5 28.5zM82 747l-11 -693q127 8 194.5 84t67.5 204q0 126 -64 246q-74 136 -187 159z" />
    <glyph glyph-name="E" unicode="E" horiz-adv-x="408" 
d="M121 447l258 6q17 0 29 -11.5t12 -28.5q0 -39 -39 -40l-262 -6l-6 -310l282 13q18 1 30 -10.5t12 -29.5q0 -38 -38 -40q-255 -15 -325 -15q-17 0 -29.5 12t-12.5 29l15 760q0 16 12 27.5t28 11.5h303q17 0 28.5 -11.5t11.5 -28.5t-11.5 -28.5t-28.5 -11.5h-264z" />
    <glyph glyph-name="F" unicode="F" horiz-adv-x="408" 
d="M103 407l-4 -377q0 -40 -40 -40t-40 40l5 414q-8 21 -8 72q0 16 2 99q2 92 1 142q0 17 11.5 29t28.5 12h338q40 0 40 -40t-40 -40h-298l4 -226l245 10q42 2 42 -40q0 -38 -39 -40q-85 -4 -150 -9q-82 -6 -98 -6z" />
    <glyph glyph-name="G" unicode="G" horiz-adv-x="454" 
d="M435 273q40 0 40 -40q0 -32 -33 -39q-5 -1 -58 -1q-23 -73 -73 -141q-64 -87 -123 -87q-101 0 -150 184q-33 124 -33 263q0 136 27 230q43 149 143 149q48 0 131 -58q87 -60 87 -105q0 -16 -12.5 -28.5t-28.5 -12.5q-9 0 -71 59.5t-101 59.5q-96 0 -96 -271
q0 -100 21 -218q30 -170 83 -170q43 0 106 146q8 0 -17 -1h-20q-59 0 -59 41q0 17 11.5 28.5t28.5 11.5h197z" />
    <glyph glyph-name="H" unicode="H" horiz-adv-x="473" 
d="M367 486l-1 267q0 40 40 40t40 -40l3 -713q0 -42 -40 -42t-40 42l-3 366l-267 -11v-358q0 -40 -40 -40t-40 40v699q0 40 40 40t40 -40v-261z" />
    <glyph glyph-name="I" unicode="I" horiz-adv-x="125" 
d="M14 39l12 730q1 39 40 39q41 0 40 -41l-12 -730q-1 -39 -40 -39q-41 0 -40 41z" />
    <glyph glyph-name="J" unicode="J" horiz-adv-x="467" 
d="M438 757l9 -539q2 -102 -59 -163q-48 -48 -123 -48q-91 0 -171 61q-87 66 -87 154q0 40 40 40t40 -40q0 -51 58 -95q55 -40 108 -40q99 0 114 137l-9 531q-1 41 40 41q39 0 40 -39z" />
    <glyph glyph-name="K" unicode="K" horiz-adv-x="453" 
d="M146 396l183 -185q150 -154 150 -182q0 -16 -12.5 -28.5t-28.5 -12.5q-26 0 -154 139q-49 53 -153 168v-277q0 -17 -11.5 -29.5t-28.5 -12.5t-28.5 12.5t-11.5 29.5v764q0 17 11.5 28.5t28.5 11.5t28.5 -11.5t11.5 -28.5v-284l146 167q121 135 148 135q17 0 29.5 -12
t12.5 -29q0 -19 -147 -177z" />
    <glyph glyph-name="L" unicode="L" horiz-adv-x="485" 
d="M126 75l354 3q17 0 28.5 -11.5t11.5 -28.5q0 -59 -302 -59q-173 0 -172 56l8 735q0 40 40 40q17 0 28.5 -11.5t11.5 -28.5z" />
    <glyph glyph-name="M" unicode="M" horiz-adv-x="545" 
d="M23 24l3 729q0 45 34 45q26 0 117 -102q37 -43 110 -128q24 43 74 128q61 100 92 100q33 0 36 -43l52 -729q1 -18 -10.5 -30.5t-29.5 -12.5q-37 0 -40 37l-43 607l-57 -93q-46 -72 -71 -72q-23 0 -96 85q-23 27 -88 105l-3 -626q0 -40 -40 -40q-17 0 -28.5 11.5
t-11.5 28.5z" />
    <glyph glyph-name="N" unicode="N" horiz-adv-x="506" 
d="M8 31l15 740q1 46 37 46q25 0 39 -29l297 -595l16 576q1 39 40 39q41 0 40 -41l-20 -736q-1 -46 -37 -46q-25 0 -39 29l-296 593l-12 -578q-1 -39 -40 -39q-41 0 -40 41z" />
    <glyph glyph-name="O" unicode="O" horiz-adv-x="460" 
d="M459 356q3 -135 -53 -233q-67 -116 -193 -116q-120 0 -180 132q-46 101 -46 237q0 139 47 258q62 160 179 160q114 0 185 -161q57 -129 61 -277zM379 355q-3 125 -50 237q-51 122 -116 122q-77 0 -117 -141q-28 -100 -28 -202q0 -100 26 -175q38 -109 119 -109
q89 0 134 95q34 74 32 173z" />
    <glyph glyph-name="P" unicode="P" horiz-adv-x="309" 
d="M95 441q64 9 107 45q49 41 49 102t-49 99q-42 33 -106 41zM16 770q0 16 12 28t28 12q111 0 188 -55q87 -61 87 -168q0 -95 -72 -158q-65 -58 -163 -68l9 -342q0 -17 -11.5 -29t-28.5 -12q-38 0 -39 40l-11 303z" />
    <glyph glyph-name="Q" unicode="Q" horiz-adv-x="586" 
d="M479 356q2 -82 -20 -156l134 -98q17 -12 17 -31q0 -17 -12 -29.5t-29 -12.5q-12 0 -24 9l-118 86q-67 -117 -194 -117q-120 0 -180 132q-46 101 -46 237q0 139 47 258q62 160 179 160q114 0 185 -161q57 -129 61 -277zM399 355q-3 124 -50 237q-51 122 -116 122
q-77 0 -117 -141q-28 -100 -28 -202q0 -100 26 -175q38 -109 119 -109q82 0 129 85l-157 114q-17 12 -17 31q0 17 12 29.5t29 12.5q12 0 24 -9l137 -100q10 50 9 105z" />
    <glyph glyph-name="R" unicode="R" horiz-adv-x="344" 
d="M75 483q70 6 127 33q76 36 76 96q0 59 -77 92q-53 23 -126 28v-249zM-11 22q6 438 6 751q0 16 12 28t28 12q118 0 207 -42q116 -55 116 -160q0 -88 -85 -145q-69 -47 -166 -60l120 -177q100 -149 100 -166q0 -16 -13 -28t-29 -12q-26 0 -110 129l-102 160
q0 -29 3.5 -87.5t3.5 -87.5q0 -156 -51 -156q-17 0 -28.5 12t-11.5 29z" />
    <glyph glyph-name="S" unicode="S" horiz-adv-x="454" 
d="M248 727q-71 0 -117 -26q-57 -32 -57 -97q0 -103 101 -143q63 -23 188 -71q101 -60 101 -199q0 -109 -93 -165q-76 -46 -193 -46q-171 0 -171 51q0 39 63 39q19 0 57 -5.5t57 -5.5q79 0 131 24q69 33 69 103q0 108 -101 149q-63 23 -188 71q-101 57 -101 194
q0 103 80 158q69 48 176 48q175 0 175 -55q0 -15 -9 -28t-23 -13q-24 0 -72.5 8.5t-72.5 8.5z" />
    <glyph glyph-name="T" unicode="T" horiz-adv-x="460" 
d="M274 725v-687q0 -17 -11.5 -28.5t-28.5 -11.5t-28.5 11.5t-11.5 28.5v687q-19 0 -58 -4t-59 -4q-102 0 -102 48q0 17 11.5 28.5t28.5 11.5h438q17 0 28.5 -11.5t11.5 -28.5q0 -48 -102 -48q-20 0 -59 4t-58 4z" />
    <glyph glyph-name="U" unicode="U" horiz-adv-x="476" 
d="M231 75q150 0 150 265q0 55 -8.5 164.5t-8.5 164.5q0 120 49 120q17 0 28.5 -11.5t11.5 -28.5v-491q0 -106 -57 -180q-62 -82 -165 -82q-102 0 -160 83q-52 73 -52 179v482q0 17 11.5 28.5t28.5 11.5q50 0 50 -122q0 -55 -8.5 -164t-8.5 -164q0 -255 139 -255z" />
    <glyph glyph-name="V" unicode="V" horiz-adv-x="515" 
d="M253 165l178 605q9 29 37 29q16 0 28.5 -11t12.5 -27q0 -5 -219 -751q-11 -36 -38 -36q-28 0 -38 36l-212 749q0 16 12.5 26.5t28.5 10.5q29 0 37 -29z" />
    <glyph glyph-name="W" unicode="W" horiz-adv-x="556" 
d="M151 219q13 59 42 175q39 145 80 145q43 0 79 -152q13 -61 39 -184l126 569q7 31 38 31q17 0 29 -11.5t12 -28.5q0 -21 -75 -353l-88 -385q-9 -38 -39 -38q-44 0 -82 161q-13 65 -41 195q-15 -66 -47 -197q-43 -162 -87 -162q-32 0 -39 41l-62 373q-42 257 -42 361
q0 15 12.5 25.5t28.5 10.5q34 0 39 -34z" />
    <glyph glyph-name="X" unicode="X" horiz-adv-x="491" 
d="M510 759l-219 -380l184 -336q6 -11 6 -20q0 -16 -13 -27.5t-29 -11.5q-22 0 -34 21l-161 293l-164 -286q-11 -20 -34 -20q-16 0 -29 11.5t-13 27.5q0 11 6 21l189 328l-206 377q-6 11 -6 20q0 16 13 27.5t29 11.5q22 0 34 -21l183 -334l194 338q11 20 34 20
q16 0 29 -11.5t13 -27.5q0 -11 -6 -21z" />
    <glyph glyph-name="Y" unicode="Y" horiz-adv-x="496" 
d="M276 418l-6 -387q-1 -39 -40 -39q-41 0 -40 41l6 387l-189 330q-6 10 -6 21q0 16 13 27.5t29 11.5q23 0 34 -20l161 -282l188 301q12 20 33 20q16 0 29 -12t13 -28q0 -11 -7 -22z" />
    <glyph glyph-name="Z" unicode="Z" horiz-adv-x="430" 
d="M30 796l383 6q40 1 40 -45q0 -91 -154 -360q-22 -38 -192 -327h276q40 0 40 -40t-40 -40h-341q-39 0 -39 43q0 83 140 330q68 119 205 358l-316 -5q-41 -1 -41 40q0 39 39 40z" />
    <glyph glyph-name="bracketleft" unicode="[" horiz-adv-x="503" 
d="M168 720h-75l3 -635h75q40 0 40 -40t-40 -40h-115q-16 0 -28 12t-12 28l-3 715q0 16 12 28t28 12h115q40 0 40 -40t-40 -40zM539 410z" />
    <glyph glyph-name="backslash" unicode="\" horiz-adv-x="399" 
d="M31 721l297 -712q10 -25 36 -25q17 0 29 11t12 28q0 9 -3 16l-297 712q-10 25 -36 25q-17 0 -29 -11t-12 -28q0 -9 3 -16z" />
    <glyph glyph-name="bracketright" unicode="]" horiz-adv-x="565" 
d="M384 720h75l-3 -635h-75q-40 0 -40 -40t40 -40h115q16 0 28 12t12 28l3 715q0 16 -12 28t-28 12h-115q-40 0 -40 -40t40 -40zM13 410z" />
    <glyph glyph-name="asciicircum" unicode="^" horiz-adv-x="242" 
d="M-27 681q31 31 94 93q32 31 52 31q16 0 43 -25q12 -13 73 -74q12 -12 12 -28q0 -17 -12 -29t-29 -12q-15 0 -28 13l-58 59l-93 -86q-13 -12 -27 -12q-17 0 -29 12.5t-12 29.5q0 15 14 28z" />
    <glyph glyph-name="underscore" unicode="_" horiz-adv-x="508" 
d="M54 10h407q40 0 40 -40t-40 -40h-407q-40 0 -40 40t40 40z" />
    <glyph glyph-name="grave" unicode="`" horiz-adv-x="187" 
d="M94 798l93 -115q10 -12 10 -25q0 -16 -13 -28.5t-29 -12.5q-17 0 -30 16l-93 115q-10 12 -10 25q0 16 13 28.5t29 12.5q17 0 30 -16z" />
    <glyph glyph-name="a" unicode="a" horiz-adv-x="461" 
d="M349 138q6 64 6 129q0 80 -9 162q-93 -16 -175 -89q-90 -80 -90 -169q0 -79 94 -79q68 0 174 46zM371 31l-9 26q-110 -45 -192 -45q-76 0 -122 40t-46 114q0 117 100 221q110 115 275 127q14 1 27 -9t15 -24q15 -86 15 -219q0 -85 -7 -145l20 -60q2 -6 2 -15
q0 -16 -12.5 -27t-28.5 -11q-28 0 -37 27z" />
    <glyph glyph-name="b" unicode="b" horiz-adv-x="427" 
d="M111 388l-3 -325q87 8 156 43q91 47 91 121q0 72 -91 117q-64 32 -153 44zM111 768v-299q124 -16 211 -66q114 -66 114 -174q0 -121 -130 -190q-104 -56 -237 -58q-59 -1 -59 184q0 57 10.5 171t10.5 97v335q0 40 40 40t40 -40z" />
    <glyph glyph-name="c" unicode="c" horiz-adv-x="378" 
d="M318 394q-59 36 -107 36q-65 0 -98 -63q-26 -50 -25 -121q1 -63 22 -106q28 -56 84 -56q53 0 121 53q12 9 24 9q17 0 29 -12.5t12 -29.5q0 -18 -17 -31q-93 -72 -171 -72q-84 0 -136 80q-47 71 -48 164q-2 100 48 178q57 89 152 89q69 0 152 -50q20 -12 20 -33
q0 -16 -12 -29t-28 -13q-11 0 -22 7z" />
    <glyph glyph-name="d" unicode="d" horiz-adv-x="461" 
d="M359 335q-38 6 -73 6q-78 0 -140 -36q-74 -43 -74 -116q0 -74 79 -112q61 -29 144 -29q27 0 57 3zM440 779v-413l-9 -352q-1 -54 -126 -54q-116 0 -207 54q-107 63 -107 172q0 116 98 179q84 55 206 55q33 0 65 -5q0 38 -5 113.5t-5 113.5q0 177 50 177q17 0 28.5 -11.5
t11.5 -28.5z" />
    <glyph glyph-name="e" unicode="e" horiz-adv-x="503" 
d="M84 323l345 6q-39 147 -167 147q-67 0 -121 -42q-59 -46 -57 -111zM479 14q-27 -1 -52 -1q-141 0 -244 34q-175 58 -175 206q0 13 1 26q-6 25 -6 50q0 97 84 164q78 63 178 63q108 0 176 -78q60 -70 76 -183q9 -65 -198 -65q-31 0 -230 11q12 -97 161 -131
q94 -21 225 -16q42 2 42 -40q0 -38 -38 -40z" />
    <glyph glyph-name="f" unicode="f" horiz-adv-x="284" 
d="M65 347q-30 0 -42 5q-21 9 -21 35q0 28 24 36q12 4 46 4q15 155 31 226q38 168 110 168q29 0 60.5 -31t31.5 -59q0 -16 -13 -27.5t-29 -11.5q-17 0 -30 15q-9 14 -19 29q-37 -58 -61 -309q8 0 25 1t26 1q65 0 65 -42q0 -43 -67 -43q-9 0 -27.5 1.5t-27.5 1.5
q-2 -139 -19 -334q-3 -38 -40 -38q-40 0 -40 42q0 103 17 330z" />
    <glyph glyph-name="g" unicode="g" horiz-adv-x="446" 
d="M341 91q17 60 17 134t-17 144q-81 -2 -139 -32q-75 -38 -75 -110q0 -64 58 -104q51 -35 118 -35q18 0 38 3zM92 -113q57 -51 112 -51q99 0 123 173q-110 -7 -191 50q-88 62 -88 169q0 117 110 176q89 48 215 45q63 -2 63 -171q0 -127 -23 -224q2 -12 2 -27
q0 -88 -57 -175q-66 -100 -159 -100q-77 0 -161 75q-14 13 -14 29q0 17 12 29.5t29 12.5q15 0 27 -11z" />
    <glyph glyph-name="h" unicode="h" horiz-adv-x="358" 
d="M57 382q47 73 115 73q102 0 152 -135q36 -97 36 -218q0 -61 -3 -79q-9 -51 -42 -51q-40 0 -40 60q0 12 2.5 36.5t2.5 36.5q0 79 -20 156q-29 112 -87 112q-60 0 -85 -104q-4 -17 -26 -192q-13 -104 -44 -104q-18 0 -29 12t-11 30l-3 767q0 17 11.5 28.5t28.5 11.5
q40 0 40 -40z" />
    <glyph glyph-name="i" unicode="i" horiz-adv-x="129" 
d="M21 51l12 407q1 39 40 39q41 0 40 -41l-12 -407q-1 -39 -40 -39q-41 0 -40 41zM27 604l3 20q5 34 39 34q20 0 32 -13.5t9 -32.5l-3 -20q-5 -34 -39 -34q-20 0 -32 13.5t-9 32.5z" />
    <glyph glyph-name="j" unicode="j" horiz-adv-x="314" 
d="M287 425l10 -337q3 -98 -32 -178q-44 -101 -134 -101q-36 0 -84 24q-56 28 -56 58q0 16 12.5 29t28.5 13q7 0 41 -21t57 -21q84 0 84 178q0 47 -6.5 140t-6.5 140q0 116 46 116q39 0 40 -40zM278 606v-52q0 -40 -40 -40t-40 40v52q0 40 40 40t40 -40z" />
    <glyph glyph-name="k" unicode="k" horiz-adv-x="390" 
d="M204 308q40 -45 119 -137q95 -112 95 -136q0 -16 -13 -28.5t-29 -12.5q-25 0 -116 113q-20 25 -108 139l-16 -19l1 -192q0 -17 -11.5 -28.5t-28.5 -11.5q-40 0 -40 40l-3 733q0 17 11.5 28.5t28.5 11.5q40 0 40 -40l2 -417q24 32 72 94q58 72 84 72q16 0 29 -12.5
t13 -28.5q0 -17 -57 -84q-24 -28 -73 -84z" />
    <glyph glyph-name="l" unicode="l" horiz-adv-x="98" 
d="M84 753l3 -729q0 -40 -40 -40t-40 40l-3 729q0 40 40 40t40 -40z" />
    <glyph glyph-name="m" unicode="m" horiz-adv-x="681" 
d="M-15 47q0 132 33 243q48 163 150 163q91 0 141 -147q51 150 154 150t168 -173q51 -136 51 -259q0 -43 -40 -43q-34 0 -40 38.5t-18 119.5q-15 95 -42 157q-34 78 -81 78q-68 0 -94 -152q-14 -83 -14 -200q0 -43 -40 -43q-32 0 -48 102q-9 63 -29 189q-19 102 -64 102
q-61 0 -89 -154q-18 -99 -18 -196q0 -41 -40 -41q-27 0 -35 22q-5 13 -5 44z" />
    <glyph glyph-name="n" unicode="n" horiz-adv-x="443" 
d="M11 33l1 23q-1 -11 -1 -23zM92 54q-1 -11 -1 -23zM102 377q65 96 144 96q109 0 162 -178q35 -119 35 -262q0 -41 -40 -41q-37 0 -40 39q-12 158 -21 204q-31 154 -101 154q-58 0 -93 -76q-28 -59 -41 -155q-5 -43 -16 -127q-6 -41 -40 -41q-41 0 -40 43l12 375
q1 39 40 39q28 0 36 -24q4 -13 3 -46z" />
    <glyph glyph-name="o" unicode="o" horiz-adv-x="543" 
d="M7 261q0 101 80 162q74 56 177 56q112 0 187 -63q81 -67 81 -176q0 -108 -80 -175q-75 -64 -185 -64q-115 0 -187.5 72.5t-72.5 187.5zM267 81q76 0 128 41q57 44 57 118q0 75 -58 119q-52 40 -130 40q-72 0 -121 -34q-56 -39 -56 -108q0 -79 50.5 -127.5t129.5 -48.5z
" />
    <glyph glyph-name="p" unicode="p" horiz-adv-x="429" 
d="M97 65q85 7 154 44q89 48 89 121q0 71 -92 109q-63 26 -151 30v-304zM17 -282v692q0 16 12 28t28 12q132 0 232 -44q132 -58 132 -175q0 -108 -112 -179q-93 -59 -212 -67q0 -27 4 -82t4 -83q0 -142 -48 -142q-17 0 -28.5 11.5t-11.5 28.5z" />
    <glyph glyph-name="q" unicode="q" horiz-adv-x="436" 
d="M341 65q-85 7 -154 44q-89 48 -89 121q0 71 92 109q63 26 151 30v-304zM421 -282v692q0 16 -12 28t-28 12q-132 0 -232 -44q-132 -58 -132 -175q0 -108 112 -179q93 -59 212 -67q0 -27 -4 -82t-4 -83q0 -142 48 -142q17 0 28.5 11.5t11.5 28.5z" />
    <glyph glyph-name="r" unicode="r" horiz-adv-x="358" 
d="M63 386q58 58 164 58q156 0 156 -53q0 -41 -41 -41q-21 0 -61 8t-61 8q-96 0 -131 -73q-24 -50 -24 -153v-31q0 -7 1 -17v-12q0 -47 -4 -65q-9 -42 -39 -42t-38 29q-3 11 -3 53l1 349q0 17 11.5 28.5t28.5 11.5q40 0 40 -58z" />
    <glyph glyph-name="s" unicode="s" horiz-adv-x="470" 
d="M229 522q-40 0 -67 -16q-33 -19 -33 -57q0 -74 92 -97q31 -8 172 -39q92 -34 92 -127q0 -85 -86 -136q-73 -43 -164 -43q-61 0 -133 18q-97 24 -97 62q0 17 11.5 29t28.5 12q28 0 91.5 -20t95.5 -20q56 0 107 21q66 27 66 75q0 51 -92 69q-142 28 -171 42q-92 44 -92 155
q0 73 54 114q48 37 124 37q56 0 140 -24q103 -30 103 -67q0 -18 -12.5 -29.5t-30.5 -11.5q-6 0 -82.5 26.5t-116.5 26.5z" />
    <glyph glyph-name="t" unicode="t" horiz-adv-x="283" 
d="M109 424q16 0 49 3.5t49 3.5q92 0 92 -47t-92 -47q-17 0 -50 3.5t-49 3.5l-2 -323q0 -40 -40 -40q-17 0 -28.5 11.5t-11.5 28.5l5 729q0 40 40 40q17 0 28.5 -11.5t11.5 -28.5z" />
    <glyph glyph-name="u" unicode="u" horiz-adv-x="513" 
d="M507 429q0 -147 -53 -267q-69 -156 -199 -156q-129 0 -196 156q-50 117 -50 267q0 17 11.5 28.5t28.5 11.5t28.5 -11.5t11.5 -28.5q0 -112 31 -207q44 -135 136 -135q91 0 138 134q33 95 33 208q0 17 11.5 28.5t28.5 11.5t28.5 -11.5t11.5 -28.5z" />
    <glyph glyph-name="v" unicode="v" horiz-adv-x="476" 
d="M81 459l163 -319l157 311q11 22 35 22q17 0 29.5 -11t12.5 -28q0 -9 -5 -19l-193 -381q-14 -27 -36 -27t-36 27l-199 389q-5 10 -5 19q0 17 12.5 28t29.5 11q24 0 35 -22z" />
    <glyph glyph-name="w" unicode="w" horiz-adv-x="522" 
d="M78 511l107 -341q10 31 29 93q37 111 70 111q18 0 33 -31l79 -161l62 334q6 33 38 33q20 0 32 -13.5t8 -33.5l-83 -452q-7 -40 -37 -40q-24 0 -38 29l-90 183l-67 -193q-12 -34 -38 -34q-27 0 -38 35l-143 457q-2 6 -2 14q0 16 12.5 27t28.5 11q28 0 37 -28z" />
    <glyph glyph-name="x" unicode="x" horiz-adv-x="455" 
d="M437 413l-157 -185l175 -179q12 -12 12 -28t-12.5 -28.5t-28.5 -12.5t-29 13l-168 174l-153 -181q-13 -15 -30 -15q-16 0 -29 12.5t-13 28.5q0 14 10 26l159 187l-168 172q-12 12 -12 28t12.5 28.5t28.5 12.5t29 -13l161 -167l151 179q13 15 30 15q16 0 29 -12.5
t13 -28.5q0 -14 -10 -26z" />
    <glyph glyph-name="y" unicode="y" horiz-adv-x="413" 
d="M216 -222q50 0 69 77q8 33 11 116q-36 -6 -69 -6q-130 0 -196 95q-58 82 -58 217q0 52 4 71q9 44 41 44q40 0 40 -52q0 -12 -3 -36.5t-3 -36.5q0 -98 41 -155q47 -65 141 -65q32 0 68 7q7 50 9 105q1 32 -1 103t-2 104q0 44 40 44q48 0 48 -143v-37q0 -9 -1 -18v-8
q0 -107 -18 -182q-11 -99 -21 -198q-26 -124 -132 -124q-47 0 -140 41q-100 44 -100 80q0 16 12 29t28 13q6 0 80.5 -42.5t111.5 -42.5z" />
    <glyph glyph-name="z" unicode="z" horiz-adv-x="512" 
d="M18 482l476 8q46 1 46 -34q0 -19 -17 -35l-361 -342l239 -4q39 -1 39 -40q0 -41 -41 -40l-337 6q-44 1 -44 34q0 19 17 35l358 338l-373 -6q-41 -1 -41 40q0 39 39 40z" />
    <glyph glyph-name="braceleft" unicode="{" horiz-adv-x="269" 
d="M249 753q-71 -68 -110 -168q-37 -96 -37 -198q0 -208 146 -339q14 -13 14 -29q0 -17 -12 -29.5t-29 -12.5q-15 0 -27 11q-172 156 -172 397q0 117 44 230q46 117 127 196q12 12 28 12t28.5 -12.5t12.5 -28.5t-13 -29z" />
    <glyph glyph-name="bar" unicode="|" horiz-adv-x="125" 
d="M14 39l12 730q1 39 40 39q41 0 40 -41l-12 -730q-1 -39 -40 -39q-41 0 -40 41z" />
    <glyph glyph-name="braceright" unicode="}" horiz-adv-x="243" 
d="M19 753q71 -68 110 -168q37 -96 37 -198q0 -208 -146 -339q-14 -13 -14 -29q0 -17 12 -29.5t29 -12.5q15 0 27 11q172 156 172 397q0 117 -44 230q-46 117 -127 196q-12 12 -28 12t-28.5 -12.5t-12.5 -28.5t13 -29z" />
    <glyph glyph-name="asciitilde" unicode="~" horiz-adv-x="1439" 
d="M155 406v-33q23 -93 156 -152q177 -79 362 -79h107q458 43 518 231v33q-22 92 -156 152q-175 78 -362 78h-107q-458 -42 -518 -230zM645 650q32 1 99 1q118 0 199 -12l74 -11l146 -32q98 -21 166 -59q95 -53 107 -128v-36q-10 -37 -25 -53q-59 -65 -145 -99
q-205 -81 -458 -89q-63 -2 -96 -2q-109 0 -205 13l-74 10l-146 32q-94 21 -165 60q-96 53 -108 128v36q10 36 25 53q58 65 145 99q206 81 461 89zM306 447v-98h80v98h28v-92q0 -29 -30 -29h-76q-30 0 -30 29v92h28zM523 425v-99h-28v99h-56v22h140v-22h-56zM614 418
q0 29 30 29h89q29 0 29 -29v-63q0 -29 -29 -29h-89q-30 0 -30 29v63zM642 349h92v76h-92v-76zM905 426h-63v-32h63q13 0 13 10v13q0 9 -13 9zM814 326v121h104q27 0 27 -24v-26q0 -24 -27 -24h-76v-47h-28zM985 326v121h28v-121h-28zM1095 374h53l-26 49zM1041 326l69 121
h27l69 -121h-32l-14 27h-77l-14 -27h-28z" />
    <glyph glyph-name="glyph98" 
 />
    <glyph glyph-name="glyph99" 
 />
    </font>
</defs>
</svg>
